<?xml version="1.0" encoding="utf-8"?>
<!-- Generator: Adobe Illustrator 26.0.2, SVG Export Plug-In . SVG Version: 6.00 Build 0)  -->
<svg version="1.1" id="Layer_1" xmlns="http://www.w3.org/2000/svg" xmlns:xlink="http://www.w3.org/1999/xlink" x="0px" y="0px"
	 viewBox="0 0 165 60" style="enable-background:new 0 0 165 60;" xml:space="preserve">
<style type="text/css">
	.st0{fill:none;}
	.st1{fill:#FFFFFF;}
</style>
<rect class="st0" width="165" height="60"/>
<g>
	<polygon class="st1" points="92.485,33.488 82.204,21.365 78.586,21.365 78.586,38.46 82.113,38.46 82.113,26.004 92.606,38.46 
		96.013,38.46 96.013,21.365 92.485,21.365 	"/>
	<polygon class="st1" points="102.104,38.46 115.883,38.46 115.883,35.82 105.631,35.82 105.631,31.078 115.672,31.078 
		115.672,28.439 105.631,28.439 105.631,24.005 115.883,24.005 115.883,21.365 102.104,21.365 	"/>
	<polygon class="st1" points="138.346,34.538 134.185,21.365 131.381,21.365 127.22,34.538 123.3,21.365 119.351,21.365 
		125.109,38.46 128.878,38.46 132.768,25.85 136.687,38.46 140.456,38.46 146.185,21.365 142.235,21.365 	"/>
	<path class="st1" d="M157.734,28.182c-2.382-0.513-4.432-0.948-4.432-2.281c0-1.281,1.327-2.127,3.407-2.127
		c2.111,0,4.251,0.615,5.819,1.948l2.02-2.23c-1.869-1.538-4.402-2.384-7.538-2.384c-4.402,0-7.327,2.179-7.327,4.998
		c0,3.614,3.859,4.434,7.146,5.126c2.442,0.538,4.583,0.999,4.583,2.537c0,1.128-1.146,2.332-4.04,2.332
		c-2.804,0-4.975-1.102-6.362-2.358l-1.96,2.307c1.779,1.615,4.462,2.717,8.171,2.717c5.427,0,7.779-2.435,7.779-5.28
		C165,29.771,161.05,28.9,157.734,28.182z"/>
	<polygon class="st1" points="16.01,21.36 9.673,21.36 5.183,27.775 5.183,21.36 0,21.36 0,38.474 5.183,38.474 5.183,33.727 
		6.132,32.444 9.981,38.474 16.293,38.474 9.545,29.314 	"/>
	<polygon class="st1" points="44.774,30.084 41.772,21.36 34.614,21.36 34.614,38.474 39.797,38.474 39.797,27.672 43.62,38.474 
		45.929,38.474 49.752,27.672 49.752,38.474 54.935,38.474 54.935,21.36 47.776,21.36 	"/>
	<path class="st1" d="M65.761,21.139c-4.903,0-8.876,3.973-8.876,8.876c0,4.902,3.973,8.876,8.876,8.876
		c4.902,0,8.876-3.975,8.876-8.876C74.637,25.112,70.663,21.139,65.761,21.139z M65.761,33.975c-2.188,0-3.961-1.773-3.961-3.96
		c0-2.187,1.773-3.96,3.961-3.96c2.187,0,3.96,1.773,3.96,3.96C69.721,32.202,67.948,33.975,65.761,33.975z"/>
	<path class="st1" d="M23.954,21.139c-4.903,0-8.876,3.973-8.876,8.876c0,4.902,3.973,8.876,8.876,8.876
		c4.902,0,8.876-3.975,8.876-8.876C32.83,25.112,28.855,21.139,23.954,21.139z M23.954,33.975c-2.188,0-3.961-1.773-3.961-3.96
		c0-2.187,1.773-3.96,3.961-3.96c2.187,0,3.96,1.773,3.96,3.96C27.913,32.202,26.14,33.975,23.954,33.975z"/>
</g>
</svg>
